<svg width="26" height="30" viewBox="0 0 26 30" fill="none" xmlns="http://www.w3.org/2000/svg">
<path d="M23.3993 12.4998H21.4381L21.4494 8.43743V8.12477C21.4494 3.63732 17.6661 0 12.9997 0C8.33224 0 4.55001 3.63787 4.55001 8.12477V12.4998H2.60017C1.16332 12.4998 0 13.6184 0 15V27.5004C0 28.8814 1.16332 30 2.60017 30H23.3993C24.8361 30 26 28.8814 26 27.5004V14.9995C26 13.6184 24.8361 12.4998 23.3993 12.4998ZM7.79994 8.12477C7.79994 5.36268 10.1272 3.12441 12.9997 3.12441C15.8728 3.12441 18.1995 5.36213 18.1995 8.12477V8.43743V12.4998H7.79994V8.12477ZM14.9501 24.5091C14.9501 25.028 14.5143 25.446 13.9752 25.446H12.0248C11.4857 25.446 11.0499 25.028 11.0499 24.5091L11.5895 21.2963C10.8745 20.8532 10.4001 20.0778 10.4001 19.1961C10.4001 17.815 11.5634 16.6964 13.0003 16.6964C14.4371 16.6964 15.6005 17.815 15.6005 19.1961C15.6005 20.0773 15.126 20.8527 14.411 21.2963C14.411 21.2968 14.6647 22.7723 14.9501 24.5091Z" fill="#7C7C7C"/>
</svg>
