<svg width="29" height="29" viewBox="0 0 29 29" fill="none" xmlns="http://www.w3.org/2000/svg">
<path fill-rule="evenodd" clip-rule="evenodd" d="M7.36927 16.7896C6.06911 18.0897 6.06911 20.2002 7.36896 21.5001C8.66901 22.8001 10.7795 22.8001 12.0797 21.5L14.4345 19.1451L16.7897 21.5003C18.0898 22.8003 20.2001 22.7999 21.5 21.5C22.7999 20.2 22.8003 18.0896 21.5003 16.7897L19.1451 14.4345L21.5001 12.0795C22.8 10.7797 22.8002 8.66896 21.5001 7.36891C20.2003 6.06907 18.0896 6.06927 16.7897 7.36912L14.4347 9.7241L12.0797 7.36901C10.7798 6.06917 8.66911 6.06917 7.36916 7.36912C6.06921 8.66907 6.06922 10.7798 7.36906 12.0796L9.72415 14.4347L7.36927 16.7896Z" fill="#EFC78A"/>
</svg>
