<svg width="47" height="47" viewBox="0 0 47 47" fill="none" xmlns="http://www.w3.org/2000/svg">
<path fill-rule="evenodd" clip-rule="evenodd" d="M11.7176 27.3402C9.56145 29.4963 9.56145 32.9963 11.7171 35.152C13.8731 37.3079 17.3731 37.3079 19.5292 35.1518L23.4345 31.2465L27.3403 35.1523C29.4963 37.3083 32.996 37.3076 35.1518 35.1518C37.3076 32.996 37.3081 29.4962 35.1523 27.3403L31.2465 23.4345L35.152 19.5291C37.3076 17.3734 37.3079 13.8731 35.152 11.7171C32.9963 9.56146 29.496 9.5618 27.3403 11.7174L23.4349 15.6229L19.5292 11.7173C17.3736 9.56163 13.8732 9.56163 11.7174 11.7174C9.56162 13.8733 9.56162 17.3736 11.7173 19.5292L15.6229 23.4349L11.7176 27.3402Z" fill="#CF5C34"/>
</svg>
