<svg width="169" height="41" viewBox="0 0 169 41" fill="none" xmlns="http://www.w3.org/2000/svg">
<path d="M45.364 31.1398C45.5119 31.1398 45.6403 31.1945 45.7481 31.3031C45.8559 31.4118 45.9095 31.5407 45.9095 31.6903V33.138C45.9095 33.2876 45.8559 33.4165 45.7481 33.5251C45.6397 33.6338 45.5119 33.6872 45.364 33.6872H36.4871C36.3387 33.6872 36.2108 33.6332 36.103 33.5251C35.9953 33.4159 35.9417 33.2876 35.9417 33.138V19.9699C35.9417 19.8209 35.9953 19.6914 36.103 19.5827C36.2108 19.4741 36.3387 19.42 36.4871 19.42H45.202C45.3505 19.42 45.4783 19.4747 45.5861 19.5827C45.6939 19.692 45.7481 19.8209 45.7481 19.9699V21.4176C45.7481 21.5672 45.6939 21.6961 45.5861 21.8047C45.4777 21.914 45.3505 21.9668 45.202 21.9668H38.6713V25.2084H44.7579C44.9057 25.2084 45.0336 25.263 45.1414 25.3711C45.2491 25.4792 45.3033 25.6086 45.3033 25.7577V27.2053C45.3033 27.355 45.2491 27.4844 45.1414 27.5925C45.0336 27.7017 44.9057 27.7558 44.7579 27.7558H38.6713V31.1387H45.364V31.1398Z" fill="#F8F8F8"/>
<path d="M50.8638 33.138C50.8638 33.2877 50.8102 33.4165 50.7024 33.5252C50.5946 33.6338 50.4668 33.6873 50.3184 33.6873H48.7815C48.6337 33.6873 48.5053 33.6332 48.3975 33.5252C48.2891 33.4159 48.2361 33.2877 48.2361 33.138V19.7663C48.2361 19.6166 48.2897 19.4878 48.3975 19.3791C48.5053 19.2705 48.6331 19.2158 48.7815 19.2158H50.3184C50.4662 19.2158 50.5946 19.2705 50.7024 19.3791C50.8102 19.4884 50.8638 19.6166 50.8638 19.7663V33.138Z" fill="#F8F8F8"/>
<path d="M53.1282 28.3882C53.1282 27.6275 53.2424 26.9102 53.4722 26.2375C53.7013 25.5653 54.0312 24.981 54.4629 24.4852C54.8941 23.9887 55.4166 23.598 56.0298 23.3124C56.643 23.0268 57.3275 22.8843 58.082 22.8843C58.8366 22.8843 59.5205 23.0232 60.1343 23.3023C60.7475 23.5814 61.27 23.9549 61.7017 24.4234C62.1323 24.8919 62.4663 25.443 62.7025 26.0748C62.9381 26.7066 63.0559 27.3692 63.0559 28.0616V28.979C63.0559 29.1287 63.0023 29.2581 62.8945 29.3662C62.7862 29.4754 62.6583 29.5295 62.5105 29.5295H55.7571C55.7571 29.8412 55.8207 30.1173 55.9491 30.3549C56.0769 30.593 56.2483 30.7925 56.4645 30.9564C56.6801 31.1191 56.9299 31.2414 57.2132 31.3227C57.4959 31.4053 57.7858 31.4457 58.0826 31.4457C58.5138 31.4457 58.8643 31.4017 59.1341 31.3127C59.4039 31.2248 59.6259 31.1125 59.8015 30.9772C59.9493 30.8679 60.0712 30.7925 60.1655 30.7521C60.2597 30.7117 60.3876 30.6909 60.5496 30.6909H62.1671C62.3149 30.6909 62.4469 30.7456 62.5611 30.8536C62.6754 30.9629 62.7261 31.0912 62.7131 31.2408C62.6996 31.4308 62.5947 31.6755 62.3997 31.9747C62.2042 32.274 61.9108 32.5656 61.5197 32.8512C61.1286 33.1368 60.6473 33.3814 60.0742 33.5845C59.5011 33.7888 58.8372 33.8909 58.0826 33.8909C57.3281 33.8909 56.6436 33.7585 56.0304 33.4931C55.4166 33.2288 54.8947 32.8512 54.4635 32.3625C54.0324 31.8732 53.7019 31.2919 53.4728 30.6191C53.243 29.9475 53.1282 29.2035 53.1282 28.3882ZM58.082 25.3307C57.6909 25.3307 57.3575 25.3889 57.0813 25.5041C56.805 25.6193 56.5717 25.7689 56.3832 25.9524C56.1942 26.1365 56.0498 26.3396 55.9485 26.564C55.8472 26.7885 55.783 27.0017 55.7565 27.2059H60.3263C60.2992 27.0017 60.2486 26.7885 60.1749 26.564C60.1007 26.3396 59.9788 26.1359 59.8109 25.9524C59.6418 25.7689 59.4198 25.6193 59.1435 25.5041C58.8678 25.3883 58.5138 25.3307 58.082 25.3307Z" fill="#F8F8F8"/>
<path d="M68.2937 33.5252C68.1988 33.416 68.1246 33.3002 68.071 33.1785L64.0066 23.7816C63.9931 23.7406 63.9866 23.6931 63.9866 23.6391C63.9866 23.4895 64.0402 23.3606 64.148 23.2519C64.2558 23.1433 64.3836 23.0892 64.532 23.0892H66.0488C66.2509 23.0892 66.3993 23.1439 66.4936 23.2519C66.5878 23.3612 66.662 23.4693 66.7156 23.5785L69.4052 29.8971L72.0942 23.5785C72.1478 23.4693 72.222 23.3612 72.3163 23.2519C72.4105 23.1433 72.5589 23.0892 72.761 23.0892H74.2778C74.4256 23.0892 74.554 23.1439 74.6618 23.2519C74.7696 23.3612 74.8232 23.4895 74.8232 23.6391C74.8232 23.6931 74.8162 23.7406 74.8026 23.7816L70.7388 33.1785C70.6846 33.3002 70.6104 33.416 70.5161 33.5252C70.4219 33.6339 70.2735 33.6873 70.0714 33.6873H68.7366C68.5364 33.6879 68.3879 33.6339 68.2937 33.5252Z" fill="#F8F8F8"/>
<path d="M75.7952 28.3882C75.7952 27.6275 75.91 26.9102 76.1392 26.2375C76.3683 25.5653 76.6982 24.981 77.1299 24.4852C77.5611 23.9887 78.0836 23.598 78.6974 23.3124C79.3106 23.0274 79.9945 22.8843 80.7496 22.8843C81.5042 22.8843 82.1881 23.0232 82.8019 23.3023C83.4157 23.5814 83.9375 23.9549 84.3693 24.4234C84.7999 24.8919 85.1339 25.443 85.3701 26.0748C85.6051 26.7066 85.7241 27.3692 85.7241 28.0616V28.979C85.7241 29.1287 85.6699 29.2581 85.5627 29.3662C85.4543 29.4754 85.3265 29.5295 85.1787 29.5295H78.4253C78.4253 29.8412 78.4889 30.1173 78.6173 30.3549C78.7451 30.593 78.9171 30.7925 79.1327 30.9564C79.3483 31.1191 79.598 31.2414 79.8814 31.3227C80.1641 31.4053 80.4539 31.4457 80.7508 31.4457C81.182 31.4457 81.5325 31.4017 81.8023 31.3127C82.072 31.2248 82.2941 31.1125 82.4696 30.9772C82.6175 30.8679 82.7388 30.7925 82.8337 30.7521C82.9279 30.7117 83.0557 30.6909 83.2177 30.6909H84.8352C84.9837 30.6909 85.115 30.7456 85.2299 30.8536C85.3436 30.9629 85.3948 31.0912 85.3819 31.2408C85.3683 31.4308 85.2635 31.6755 85.0685 31.9747C84.8724 32.274 84.5796 32.5656 84.1885 32.8512C83.7979 33.1368 83.3161 33.3814 82.743 33.5845C82.1698 33.7888 81.506 33.8909 80.7514 33.8909C79.9962 33.8909 79.3124 33.7585 78.6992 33.4931C78.0854 33.2288 77.5635 32.8512 77.1317 32.3625C76.7005 31.8732 76.3701 31.2919 76.1409 30.6191C75.91 29.9475 75.7952 29.2035 75.7952 28.3882ZM80.7496 25.3307C80.3579 25.3307 80.0251 25.3889 79.7488 25.5041C79.4726 25.6193 79.2399 25.7689 79.0508 25.9524C78.8617 26.1365 78.7174 26.3396 78.6161 26.564C78.5148 26.7885 78.4506 27.0017 78.4241 27.2059H82.9933C82.9662 27.0017 82.9161 26.7885 82.8419 26.564C82.7677 26.3396 82.6464 26.1359 82.4779 25.9524C82.3088 25.7689 82.0868 25.6193 81.8105 25.5041C81.5342 25.3889 81.1808 25.3307 80.7496 25.3307Z" fill="#F8F8F8"/>
<path d="M97.795 33.138C97.795 33.2876 97.7408 33.4165 97.6336 33.5251C97.5252 33.6338 97.398 33.6873 97.2496 33.6873H95.7133C95.5643 33.6873 95.4365 33.6332 95.3293 33.5251C95.2209 33.4159 95.1673 33.2876 95.1673 33.138V27.9601C95.1673 27.1448 94.9788 26.4922 94.6012 26.0029C94.2236 25.5136 93.644 25.2696 92.8624 25.2696C92.1478 25.2696 91.5853 25.5136 91.1742 26.0029C90.763 26.4922 90.5574 27.1448 90.5574 27.9601V33.138C90.5574 33.2876 90.5032 33.4165 90.396 33.5251C90.2876 33.6338 90.1598 33.6873 90.012 33.6873H88.4751C88.3267 33.6873 88.1989 33.6332 88.0911 33.5251C87.9827 33.4159 87.9297 33.2876 87.9297 33.138V23.639C87.9297 23.4894 87.9833 23.3605 88.0911 23.2518C88.1995 23.1432 88.3267 23.0891 88.4751 23.0891H90.012C90.1598 23.0891 90.2882 23.1438 90.396 23.2518C90.5038 23.3611 90.5574 23.4894 90.5574 23.639V24.1075C90.9079 23.7542 91.3191 23.462 91.7909 23.2311C92.2627 23.0001 92.8223 22.8843 93.4697 22.8843C94.292 22.8843 94.9788 23.0137 95.5319 23.2714C96.0844 23.5303 96.5292 23.8765 96.8667 24.3106C97.203 24.7458 97.4433 25.2523 97.5847 25.8301C97.7261 26.4079 97.7968 27.0153 97.7968 27.6543V33.138H97.795Z" fill="#F8F8F8"/>
<path d="M106.651 23.1907C105.654 23.1907 105.135 23.6996 105.094 24.7192C105.054 25.8474 105.054 27.0017 105.094 28.1846C105.121 28.7956 105.276 29.2374 105.559 29.5087C105.842 29.7813 106.234 29.9173 106.732 29.9173C107.244 29.9173 107.658 29.805 107.975 29.5806C108.292 29.3561 108.451 28.9791 108.451 28.4494H107.501C107.352 28.4494 107.224 28.3954 107.117 28.2873C107.008 28.178 106.955 28.0498 106.955 27.9001V25.6372C106.955 25.4875 107.009 25.3587 107.117 25.25C107.224 25.1408 107.352 25.0867 107.501 25.0867H113.061C113.209 25.0867 113.337 25.1414 113.445 25.25C113.553 25.3593 113.606 25.4875 113.606 25.6372V28.2873C113.606 29.2112 113.435 30.02 113.091 30.7124C112.747 31.4059 112.268 31.9896 111.655 32.4653C111.041 32.9415 110.31 33.2978 109.461 33.5353C108.612 33.7728 107.674 33.8928 106.65 33.8928C105.626 33.8928 104.702 33.777 103.88 33.546C103.058 33.315 102.354 32.9682 101.767 32.5068C101.181 32.0454 100.722 31.4641 100.392 30.7634C100.062 30.0639 99.8766 29.2386 99.836 28.2873C99.8089 27.7297 99.7959 27.1252 99.7959 26.4721C99.7959 25.8201 99.8089 25.2019 99.836 24.6176C99.8766 23.7204 100.066 22.933 100.403 22.2537C100.739 21.5744 101.204 21.0097 101.797 20.5614C102.391 20.1131 103.098 19.7764 103.92 19.5525C104.743 19.3281 105.652 19.2164 106.65 19.2164C107.716 19.2164 108.675 19.3388 109.532 19.5834C110.388 19.8286 111.113 20.1576 111.705 20.5721C112.298 20.9871 112.76 21.4693 113.091 22.0192C113.421 22.5702 113.593 23.1503 113.606 23.7626C113.606 23.8843 113.562 23.99 113.475 24.0779C113.387 24.1663 113.283 24.2109 113.161 24.2109H108.693C108.423 24.2109 108.227 24.1361 108.106 23.9864C108.066 23.9324 108.015 23.8611 107.955 23.7732C107.894 23.6848 107.806 23.5963 107.692 23.5078C107.577 23.4199 107.436 23.3451 107.267 23.284C107.099 23.221 106.894 23.1907 106.651 23.1907Z" fill="#F8F8F8"/>
<path d="M115.123 23.6391C115.123 23.4895 115.177 23.3606 115.285 23.2519C115.393 23.1433 115.52 23.0892 115.669 23.0892H119.531C119.679 23.0892 119.807 23.1439 119.915 23.2519C120.023 23.3612 120.076 23.4895 120.076 23.6391V29.1216C120.076 29.8698 120.413 30.2433 121.088 30.2433C121.761 30.2433 122.098 29.8698 122.098 29.1216V23.6391C122.098 23.4895 122.153 23.3606 122.26 23.2519C122.368 23.1433 122.495 23.0892 122.644 23.0892H126.486C126.634 23.0892 126.762 23.1439 126.87 23.2519C126.977 23.3612 127.031 23.4895 127.031 23.6391V33.1381C127.031 33.2877 126.977 33.4166 126.87 33.5252C126.761 33.6339 126.634 33.6873 126.486 33.6873H122.947C122.799 33.6873 122.67 33.6333 122.563 33.5252C122.455 33.416 122.402 33.2877 122.402 33.1381V32.4647C122.065 32.9677 121.603 33.3317 121.016 33.5555C120.43 33.7794 119.773 33.8916 119.045 33.8916C118.532 33.8916 118.04 33.8031 117.568 33.6268C117.096 33.4498 116.679 33.1713 116.315 32.7913C115.95 32.4113 115.661 31.9285 115.445 31.3436C115.229 30.7593 115.121 30.067 115.121 29.2641V23.6391H115.123Z" fill="#F8F8F8"/>
<path d="M128.412 30.9244C128.412 30.4351 128.516 29.9969 128.724 29.6097C128.933 29.2225 129.23 28.8859 129.614 28.6008C129.999 28.3158 130.463 28.0741 131.009 27.877C131.555 27.6799 132.165 27.5195 132.839 27.3978L134.983 27.051C134.983 26.6846 134.952 26.4192 134.892 26.2559C134.831 26.0932 134.659 26.0119 134.376 26.0119C134.201 26.0119 134.059 26.0457 133.952 26.1134C133.843 26.1811 133.745 26.2559 133.658 26.3379C133.57 26.4192 133.476 26.4946 133.376 26.5617C133.274 26.63 133.143 26.6639 132.981 26.6639H129.544C129.409 26.6639 129.298 26.6235 129.21 26.5415C129.123 26.4602 129.085 26.3521 129.1 26.2155C129.113 25.9572 129.221 25.6514 129.423 25.2981C129.625 24.9448 129.938 24.6123 130.364 24.2994C130.788 23.987 131.334 23.718 132.001 23.4942C132.669 23.2703 133.474 23.1581 134.418 23.1581C136.265 23.1581 137.629 23.5417 138.512 24.3095C139.395 25.0772 139.837 26.1615 139.837 27.5605V33.4118C139.837 33.5614 139.783 33.6903 139.675 33.7989C139.567 33.9076 139.439 33.9611 139.291 33.9611H135.752C135.604 33.9611 135.475 33.907 135.368 33.7989C135.26 33.6897 135.207 33.5614 135.207 33.4118V32.8406C134.91 33.2485 134.516 33.5709 134.024 33.8084C133.532 34.046 132.969 34.1659 132.335 34.1659C131.756 34.1659 131.223 34.084 130.738 33.9213C130.253 33.758 129.839 33.5311 129.495 33.2384C129.151 32.9463 128.885 32.6036 128.696 32.2099C128.505 31.8145 128.412 31.3863 128.412 30.9244ZM133.729 31.1488C134.12 31.1488 134.436 31.0229 134.679 30.7712C134.922 30.52 135.043 30.1156 135.043 29.5586L133.85 29.8229C133.499 29.9054 133.264 30.0135 133.143 30.1495C133.021 30.2854 132.961 30.4285 132.961 30.5776C132.961 30.7278 133.024 30.8602 133.153 30.9748C133.281 31.0906 133.473 31.1488 133.729 31.1488Z" fill="#F8F8F8"/>
<path d="M146.06 24.3528C146.491 23.9716 146.973 23.6664 147.506 23.4354C148.038 23.2038 148.608 23.0886 149.214 23.0886H150.185C150.332 23.0886 150.461 23.1433 150.569 23.2513C150.676 23.3606 150.73 23.4888 150.73 23.6385V26.8177C150.73 26.9673 150.676 27.0968 150.569 27.2048C150.46 27.3141 150.332 27.3681 150.185 27.3681H147.576C146.767 27.3681 146.363 27.7755 146.363 28.5908V33.1369C146.363 33.2865 146.308 33.4154 146.201 33.524C146.092 33.6327 145.965 33.6861 145.817 33.6861H141.976C141.827 33.6861 141.699 33.6321 141.592 33.524C141.483 33.4148 141.43 33.2865 141.43 33.1369V23.6391C141.43 23.4894 141.484 23.3606 141.592 23.2519C141.699 23.1433 141.827 23.0892 141.976 23.0892H145.514C145.662 23.0892 145.79 23.1438 145.898 23.2519C146.006 23.3612 146.059 23.4894 146.059 23.6391V24.3528H146.06Z" fill="#F8F8F8"/>
<path d="M155.928 22.8849C156.494 22.8849 157.002 22.9704 157.455 23.1403C157.906 23.3101 158.293 23.5446 158.617 23.8433V19.7669C158.617 19.6172 158.671 19.4884 158.779 19.3797C158.886 19.2711 159.014 19.2164 159.163 19.2164H162.904C163.052 19.2164 163.18 19.2711 163.288 19.3797C163.396 19.489 163.449 19.6172 163.449 19.7669V33.1386C163.449 33.2883 163.395 33.4171 163.288 33.5258C163.179 33.6344 163.052 33.6879 162.904 33.6879H159.466C159.318 33.6879 159.19 33.6339 159.082 33.5258C158.974 33.4165 158.921 33.2883 158.921 33.1386V32.6689C158.597 33.0365 158.193 33.3322 157.707 33.5561C157.221 33.7799 156.629 33.8922 155.928 33.8922C155.335 33.8922 154.786 33.8072 154.28 33.6368C153.774 33.4676 153.332 33.1921 152.955 32.8114C152.577 32.4302 152.274 31.9445 152.045 31.3543C151.816 30.7628 151.681 30.039 151.641 29.1833C151.627 28.871 151.621 28.602 151.621 28.3787C151.621 28.1543 151.627 27.8859 151.641 27.5736C151.667 26.7713 151.796 26.079 152.025 25.4947C152.254 24.9104 152.56 24.424 152.945 24.0369C153.329 23.6497 153.774 23.3611 154.28 23.1705C154.785 22.9799 155.335 22.8849 155.928 22.8849ZM156.595 27.7155C156.567 27.9191 156.554 28.1436 156.554 28.3882C156.554 28.6323 156.567 28.8573 156.595 29.061C156.635 29.428 156.719 29.7166 156.848 29.9274C156.976 30.1382 157.228 30.2433 157.606 30.2433C157.983 30.2433 158.24 30.1376 158.375 29.9274C158.509 29.7172 158.59 29.428 158.617 29.061C158.644 28.7487 158.657 28.4969 158.657 28.3063C158.657 28.1157 158.644 27.8651 158.617 27.5522C158.59 27.2256 158.503 26.9744 158.355 26.7975C158.206 26.6211 157.956 26.5326 157.606 26.5326C157.228 26.5326 156.976 26.6383 156.848 26.8485C156.719 27.0605 156.635 27.3485 156.595 27.7155Z" fill="#F8F8F8"/>
<path d="M28.0409 17.6626H26.0051L26.0169 13.2417V12.9015C26.0169 8.01807 22.0898 4.05981 17.246 4.05981C12.4011 4.05981 8.47516 8.01867 8.47516 12.9015V17.6626H6.4512C4.95974 17.6626 3.7522 18.8798 3.7522 20.3833V33.9867C3.7522 35.4896 4.95974 36.7069 6.4512 36.7069H28.0409C29.5323 36.7069 30.7405 35.4896 30.7405 33.9867V20.3827C30.7405 18.8798 29.5323 17.6626 28.0409 17.6626ZM11.8486 12.9015C11.8486 9.89567 14.2643 7.4599 17.246 7.4599C20.2284 7.4599 22.6435 9.89507 22.6435 12.9015V13.2417V17.6626H11.8486V12.9015ZM19.2706 30.7315C19.2706 31.2962 18.8182 31.751 18.2586 31.751H16.2341C15.6745 31.751 15.2221 31.2962 15.2221 30.7315L15.7823 27.2352C15.0401 26.753 14.5476 25.9092 14.5476 24.9496C14.5476 23.4467 15.7552 22.2295 17.2466 22.2295C18.7381 22.2295 19.9456 23.4467 19.9456 24.9496C19.9456 25.9086 19.4532 26.7524 18.711 27.2352C18.711 27.2358 18.9743 28.8414 19.2706 30.7315Z" fill="#F8F8F8"/>
</svg>
