<svg width="510" height="397" viewBox="0 0 510 397" fill="none" xmlns="http://www.w3.org/2000/svg">
<g clip-path="url(#clip0)">
<path d="M429.471 0.92253L3.03833 117.419L60.4928 328.009L486.925 211.513L429.471 0.92253Z" fill="#F5F5F5"/>
<path d="M431.811 -7.95349e-05L0.00390625 117.964L58.8647 333.71L490.672 215.745L431.811 -7.95349e-05Z" fill="url(#paint0_linear)"/>
<path d="M435.433 22L9 138.496L60.6191 327.698L487.052 211.202L435.433 22Z" fill="white"/>
<path d="M16.298 129.721C19.2517 128.921 20.9977 125.876 20.1977 122.92C19.3978 119.964 16.3548 118.217 13.4011 119.018C10.4474 119.818 8.70148 122.863 9.50144 125.819C10.3014 128.775 13.3443 130.522 16.298 129.721Z" fill="#FF5252"/>
<path d="M33.5732 125.855C36.5413 125.044 38.2906 121.979 37.4802 119.009C36.6699 116.038 33.6069 114.288 30.6387 115.099C27.6706 115.91 25.9213 118.975 26.7316 121.945C27.5419 124.915 30.605 126.666 33.5732 125.855Z" fill="#FFFF00"/>
<path d="M49.7011 121.447C52.6692 120.636 54.4185 117.571 53.6082 114.601C52.7978 111.631 49.7348 109.881 46.7666 110.691C43.7985 111.502 42.0492 114.567 42.8596 117.538C43.6699 120.508 46.7329 122.258 49.7011 121.447Z" fill="#69F0AE"/>
<path d="M121.044 107.742L8.76318 138.415L60.4508 327.868L172.731 297.195L121.044 107.742Z" fill="#7C7C7C"/>
<path d="M110.934 174.082C106.658 158.404 89.8178 149.348 73.3302 153.842C56.8426 158.335 46.9546 174.724 51.208 190.407C54.5656 202.713 65.6556 210.936 78.2481 211.728L76.2544 204.413C74.8096 199.127 78.1846 193.559 83.7671 192.038C89.3265 190.517 95.0593 193.599 96.481 198.89L98.4747 206.206C108.912 199.11 114.292 186.359 110.934 174.082Z" fill="url(#paint1_linear)"/>
<path d="M82.7407 187.574L82.3393 187.683C81.4587 187.924 80.9398 188.833 81.1802 189.714L83.5941 198.562C83.8345 199.443 84.7432 199.963 85.6238 199.722L86.0252 199.613C86.9058 199.372 87.4248 198.463 87.1844 197.581L84.7705 188.734C84.5301 187.852 83.6213 187.333 82.7407 187.574Z" fill="url(#paint2_linear)"/>
<path d="M82.997 189.242C89.3367 187.51 93.1431 181.221 91.4989 175.194C89.8547 169.168 83.3826 165.686 77.0429 167.418C70.7033 169.15 66.8968 175.439 68.541 181.466C70.1852 187.492 76.6574 190.974 82.997 189.242Z" fill="url(#paint3_linear)"/>
<path d="M83.7441 192.032C78.1847 193.553 74.8155 199.122 76.2314 204.407L78.2251 211.723C85.391 212.16 92.5008 210.218 98.4517 206.2L96.458 198.885C95.0363 193.599 89.3035 190.517 83.7441 192.032Z" fill="url(#paint4_linear)"/>
<path d="M68.2851 180.888C66.9106 179.462 65.9671 177.676 65.5631 175.736C65.3731 174.759 65.38 173.754 65.5834 172.78C65.7869 171.805 66.1827 170.882 66.7478 170.063C68.0481 168.253 70.2153 167.171 72.3304 166.391C74.4455 165.61 76.7225 165.118 78.7682 164.129C82.1371 162.5 84.7313 159.611 85.992 156.086C86.6421 157.622 87.0665 159.245 87.2519 160.903C87.3358 161.747 87.243 162.6 86.9793 163.406C86.7157 164.213 86.2869 164.955 85.7204 165.587C87.2519 164.343 87.5581 166.165 87.4541 167.374C88.6099 168.131 90.7309 167.721 91.1874 168.976C91.7045 170.21 91.9032 171.554 91.7653 172.885C91.563 174.209 92.6957 176.146 91.3723 176.603" fill="url(#paint5_linear)"/>
<path d="M108.276 170.311C106.856 165.114 104.038 160.407 100.129 156.703C96.2192 152.998 91.3685 150.439 86.1053 149.303C80.8422 148.168 75.3685 148.5 70.281 150.264C65.1935 152.027 60.6874 155.154 57.2539 159.304C53.8204 163.454 51.5913 168.468 50.8095 173.798C50.0277 179.129 50.7233 184.572 52.8204 189.534C54.9175 194.496 58.3356 198.787 62.7022 201.939C67.0688 205.091 72.2163 206.983 77.5835 207.409L75.5897 200.093C74.902 197.544 75.2502 194.827 76.5583 192.534C77.8663 190.241 80.0279 188.56 82.5708 187.857C85.1179 187.168 87.8336 187.517 90.1248 188.826C92.4161 190.135 94.0965 192.298 94.7993 194.842L96.793 202.158C101.75 198.678 105.513 193.752 107.568 188.052C109.623 182.352 109.87 176.157 108.276 170.311Z" fill="#EFC78A"/>
<path d="M81.4898 183.425L81.2668 183.486C80.3862 183.727 79.8672 184.636 80.1077 185.517L82.5216 194.365C82.762 195.246 83.6707 195.766 84.5513 195.525L84.7743 195.464C85.6549 195.224 86.1739 194.314 85.9335 193.433L83.5196 184.585C83.2792 183.704 82.3704 183.185 81.4898 183.425Z" fill="white" stroke="white" stroke-miterlimit="10"/>
<path d="M81.8351 185.069C87.8577 183.424 91.407 177.205 89.7628 171.178C88.1186 165.152 81.9035 161.6 75.881 163.245C69.8585 164.891 66.3092 171.11 67.9534 177.136C69.5976 183.163 75.8126 186.714 81.8351 185.069Z" fill="white" stroke="white" stroke-miterlimit="10"/>
<path d="M82.5766 187.857C80.0336 188.56 77.872 190.241 76.564 192.534C75.256 194.827 74.9078 197.544 75.5955 200.093L77.5835 207.409C84.4011 207.937 91.1909 206.082 96.793 202.158L94.7992 194.842C94.0964 192.299 92.4168 190.137 90.127 188.828C87.8371 187.519 85.1229 187.17 82.5766 187.857Z" fill="white" stroke="white" stroke-miterlimit="10"/>
<path d="M67.6957 176.528C66.3617 175.075 65.4434 173.289 65.0373 171.358C64.6413 169.413 65.0208 167.389 66.0949 165.72C67.3142 163.933 69.3369 162.863 71.3711 162.129C73.4053 161.394 75.5436 160.92 77.4796 159.954C79.0789 159.148 80.5022 158.032 81.6669 156.671C82.8316 155.31 83.7144 153.731 84.2642 152.026C84.9048 153.566 85.3307 155.187 85.5298 156.843C85.621 157.669 85.5436 158.505 85.3022 159.3C85.0608 160.096 84.6605 160.834 84.1255 161.469C85.5702 160.249 85.8592 162.094 85.8187 163.274C86.9109 164.043 88.951 163.661 89.4017 164.916C89.9164 166.149 90.1284 167.488 90.0201 168.819C89.8409 170.138 90.9505 172.081 89.6907 172.52" fill="white"/>
<path d="M67.6957 176.528C66.3617 175.075 65.4434 173.289 65.0373 171.358C64.6413 169.413 65.0208 167.389 66.0949 165.72C67.3142 163.933 69.3369 162.863 71.3711 162.129C73.4053 161.394 75.5436 160.92 77.4796 159.954C79.0789 159.148 80.5022 158.032 81.6669 156.671C82.8316 155.31 83.7144 153.731 84.2641 152.026C84.9048 153.566 85.3307 155.187 85.5298 156.843C85.621 157.669 85.5436 158.505 85.3022 159.3C85.0608 160.096 84.6605 160.834 84.1255 161.469C85.5702 160.249 85.8592 162.094 85.8187 163.274C86.9109 164.043 88.951 163.661 89.4017 164.916C89.9164 166.149 90.1284 167.488 90.0201 168.819C89.8409 170.138 90.9505 172.081 89.6907 172.52" stroke="white" stroke-miterlimit="10"/>
<path d="M84.657 161.094C84.657 161.094 92.4471 159.677 90.1124 172.457L84.657 161.094Z" fill="white"/>
<path opacity="0.1" d="M146.593 202.546L34.3125 233.22L60.0741 327.645L172.355 296.971L146.593 202.546Z" fill="black"/>
<path d="M116.304 232.662L61.3562 247.673L62.8234 253.051L117.771 238.04L116.304 232.662Z" fill="white"/>
<path d="M132.867 241.623L64.7798 260.223L66.247 265.601L134.335 247.001L132.867 241.623Z" fill="white"/>
<path d="M224.57 91.9338L143.347 114.123L154.272 154.167L235.495 131.978L224.57 91.9338Z" fill="#F5F5F5"/>
<path d="M235.17 130.776L153.948 152.965L164.873 193.009L246.095 170.82L235.17 130.776Z" fill="#E0E0E0"/>
<path d="M417.482 39.2359L336.26 61.4249L347.185 101.469L428.407 79.2799L417.482 39.2359Z" fill="#F5F5F5"/>
<path d="M428.077 78.0786L346.854 100.268L357.78 140.312L439.002 118.123L428.077 78.0786Z" fill="#E0E0E0"/>
<path d="M320.727 65.6634L239.505 87.8524L250.43 127.896L331.652 105.707L320.727 65.6634Z" fill="#F5F5F5"/>
<path d="M331.324 104.513L250.102 126.702L261.027 166.746L342.249 144.557L331.324 104.513Z" fill="#E0E0E0"/>
<path d="M246.862 182.748L166.035 204.653L176.82 244.502L257.647 222.597L246.862 182.748Z" fill="#E0E0E0"/>
<path d="M259.95 221.62L178.727 243.809L189.652 283.853L270.875 261.664L259.95 221.62Z" fill="#BDBDBD"/>
<path d="M442.26 130.074L361.038 152.263L371.963 192.307L453.185 170.118L442.26 130.074Z" fill="#F5F5F5"/>
<path d="M452.862 168.922L371.64 191.111L382.565 231.155L463.787 208.966L452.862 168.922Z" fill="#BDBDBD"/>
<path d="M345.507 156.507L264.285 178.696L275.21 218.74L356.432 196.551L345.507 156.507Z" fill="#F5F5F5"/>
<path d="M356.108 195.35L274.885 217.539L285.81 257.583L367.033 235.394L356.108 195.35Z" fill="#BDBDBD"/>
<path d="M168.335 158.671C173.283 157.319 176.272 152.477 175.011 147.855C173.75 143.233 168.717 140.583 163.769 141.934C158.821 143.286 155.832 148.128 157.093 152.75C158.354 157.372 163.387 160.022 168.335 158.671Z" fill="url(#paint6_linear)"/>
<path d="M166.061 157.316C170.329 156.159 172.852 151.759 171.696 147.488C170.54 143.217 166.143 140.692 161.875 141.849C157.607 143.006 155.084 147.406 156.24 151.677C157.396 155.948 161.793 158.473 166.061 157.316Z" fill="#EFC78A"/>
<path d="M263.298 132.727C268.246 131.375 271.235 126.533 269.974 121.911C268.714 117.29 263.68 114.639 258.732 115.991C253.784 117.343 250.795 122.185 252.056 126.806C253.317 131.428 258.35 134.079 263.298 132.727Z" fill="url(#paint7_linear)"/>
<path d="M262.973 131.534C267.262 130.363 269.79 125.934 268.619 121.642C267.448 117.35 263.022 114.82 258.733 115.992C254.444 117.164 251.916 121.593 253.087 125.885C254.258 130.177 258.684 132.706 262.973 131.534Z" fill="#EFC78A"/>
<path d="M361.247 105.967C366.195 104.615 369.184 99.7729 367.923 95.1513C366.662 90.5297 361.629 87.879 356.681 89.2307C351.733 90.5824 348.744 95.4247 350.005 100.046C351.266 104.668 356.299 107.319 361.247 105.967Z" fill="url(#paint8_linear)"/>
<path d="M360.922 104.774C365.211 103.603 367.739 99.1736 366.568 94.8817C365.397 90.5898 360.971 88.0604 356.682 89.2321C352.393 90.4038 349.865 94.833 351.036 99.1248C352.207 103.417 356.633 105.946 360.922 104.774Z" fill="#EFC78A"/>
<path d="M193.283 250.108C198.231 248.756 201.22 243.914 199.959 239.293C198.698 234.671 193.665 232.02 188.717 233.372C183.769 234.724 180.78 239.566 182.041 244.188C183.302 248.809 188.335 251.46 193.283 250.108Z" fill="url(#paint9_linear)"/>
<path d="M192.958 248.917C197.247 247.746 199.774 243.316 198.603 239.025C197.432 234.733 193.006 232.203 188.717 233.375C184.428 234.547 181.901 238.976 183.071 243.268C184.242 247.56 188.669 250.089 192.958 248.917Z" fill="#2196F3"/>
<path d="M288.246 224.165C293.194 222.813 296.183 217.971 294.922 213.349C293.661 208.727 288.628 206.077 283.68 207.428C278.732 208.78 275.743 213.622 277.004 218.244C278.265 222.866 283.298 225.516 288.246 224.165Z" fill="url(#paint10_linear)"/>
<path d="M287.915 222.974C292.204 221.802 294.732 217.373 293.561 213.081C292.39 208.789 287.964 206.26 283.675 207.431C279.386 208.603 276.858 213.032 278.029 217.324C279.2 221.616 283.626 224.145 287.915 222.974Z" fill="#2196F3"/>
<path d="M386.19 197.406C391.138 196.054 394.127 191.212 392.866 186.59C391.605 181.969 386.572 179.318 381.624 180.67C376.676 182.022 373.687 186.864 374.948 191.485C376.209 196.107 381.242 198.758 386.19 197.406Z" fill="url(#paint11_linear)"/>
<path d="M385.864 196.214C390.153 195.042 392.681 190.613 391.51 186.321C390.339 182.029 385.913 179.5 381.624 180.671C377.335 181.843 374.807 186.272 375.978 190.564C377.149 194.856 381.575 197.385 385.864 196.214Z" fill="#2196F3"/>
<path d="M507.503 173.631H65.4648V391.928H507.503V173.631Z" fill="#F5F5F5"/>
<path d="M510 173.359H62.3906V397H510V173.359Z" fill="url(#paint12_linear)"/>
<path d="M507.039 196H65V392.126H507.039V196Z" fill="white"/>
<path d="M219 218L194 263H244L219 218Z" fill="#EFC78A"/>
<path d="M219 222L197 261H241L219 222Z" fill="#CF5C34"/>
<path d="M218.5 260C219.881 260 221 258.657 221 257C221 255.343 219.881 254 218.5 254C217.119 254 216 255.343 216 257C216 258.657 217.119 260 218.5 260Z" fill="url(#paint13_linear)"/>
<path d="M219.5 258C220.881 258 222 256.881 222 255.5C222 254.119 220.881 253 219.5 253C218.119 253 217 254.119 217 255.5C217 256.881 218.119 258 219.5 258Z" fill="#EFC78A"/>
<path d="M222 235H217V251H222V235Z" fill="#EFC78A"/>
<path d="M75.9885 189.823C79.0653 189.823 81.5595 187.327 81.5595 184.248C81.5595 181.169 79.0653 178.673 75.9885 178.673C72.9117 178.673 70.4175 181.169 70.4175 184.248C70.4175 187.327 72.9117 189.823 75.9885 189.823Z" fill="#FF5252"/>
<path d="M92.7016 189.823C95.7784 189.823 98.2726 187.327 98.2726 184.248C98.2726 181.169 95.7784 178.673 92.7016 178.673C89.6248 178.673 87.1306 181.169 87.1306 184.248C87.1306 187.327 89.6248 189.823 92.7016 189.823Z" fill="#FFFF00"/>
<path d="M109.42 189.823C112.497 189.823 114.991 187.327 114.991 184.248C114.991 181.169 112.497 178.673 109.42 178.673C106.344 178.673 103.849 181.169 103.849 184.248C103.849 187.327 106.344 189.823 109.42 189.823Z" fill="#69F0AE"/>
<path d="M123.885 262.323H123.469C122.556 262.323 121.816 263.063 121.816 263.977V273.148C121.816 274.062 122.556 274.802 123.469 274.802H123.885C124.798 274.802 125.538 274.062 125.538 273.148V263.977C125.538 263.063 124.798 262.323 123.885 262.323Z" fill="url(#paint14_linear)"/>
<path d="M353 274H194V288H353V274Z" fill="#BDBDBD"/>
<path d="M398.18 296H194.498V301.575H398.18V296Z" fill="#E0E0E0"/>
<path d="M398.18 307.453H194.498V313.027H398.18V307.453Z" fill="#E0E0E0"/>
<path d="M251.456 319H194.498V324.575H251.456V319Z" fill="#E6E6E6"/>
<path d="M324.509 319H267.551V324.575H324.509V319Z" fill="#F5F5F5"/>
<path d="M398.186 319H341.228V324.575H398.186V319Z" fill="#E6E6E6"/>
</g>
<defs>
<linearGradient id="paint0_linear" x1="274.763" y1="274.729" x2="215.829" y2="59.0034" gradientUnits="userSpaceOnUse">
<stop stop-color="#808080" stop-opacity="0.25"/>
<stop offset="0.54" stop-color="#808080" stop-opacity="0.12"/>
<stop offset="1" stop-color="#808080" stop-opacity="0.1"/>
</linearGradient>
<linearGradient id="paint1_linear" x1="88.3585" y1="208.959" x2="73.307" y2="153.863" gradientUnits="userSpaceOnUse">
<stop stop-opacity="0.12"/>
<stop offset="0.55" stop-opacity="0.09"/>
<stop offset="1" stop-opacity="0.02"/>
</linearGradient>
<linearGradient id="paint2_linear" x1="-108.969" y1="3629.73" x2="-179.936" y2="3369.95" gradientUnits="userSpaceOnUse">
<stop stop-opacity="0.12"/>
<stop offset="0.55" stop-opacity="0.09"/>
<stop offset="1" stop-opacity="0.02"/>
</linearGradient>
<linearGradient id="paint3_linear" x1="-7355.06" y1="7808" x2="-7588.28" y2="6954.33" gradientUnits="userSpaceOnUse">
<stop stop-opacity="0.12"/>
<stop offset="0.55" stop-opacity="0.09"/>
<stop offset="1" stop-opacity="0.02"/>
</linearGradient>
<linearGradient id="paint4_linear" x1="-8993.36" y1="5677.81" x2="-8993.36" y2="5006.44" gradientUnits="userSpaceOnUse">
<stop stop-opacity="0.12"/>
<stop offset="0.55" stop-opacity="0.09"/>
<stop offset="1" stop-opacity="0.02"/>
</linearGradient>
<linearGradient id="paint5_linear" x1="-10634.5" y1="5534.56" x2="-10634.5" y2="4624.3" gradientUnits="userSpaceOnUse">
<stop stop-opacity="0.12"/>
<stop offset="0.55" stop-opacity="0.09"/>
<stop offset="1" stop-opacity="0.02"/>
</linearGradient>
<linearGradient id="paint6_linear" x1="157.093" y1="152.75" x2="175.013" y2="147.861" gradientUnits="userSpaceOnUse">
<stop stop-opacity="0.09"/>
<stop offset="0.55" stop-opacity="0.07"/>
<stop offset="1" stop-opacity="0.02"/>
</linearGradient>
<linearGradient id="paint7_linear" x1="-46.9887" y1="3990.91" x2="528.951" y2="3833.78" gradientUnits="userSpaceOnUse">
<stop stop-opacity="0.09"/>
<stop offset="0.55" stop-opacity="0.07"/>
<stop offset="1" stop-opacity="0.02"/>
</linearGradient>
<linearGradient id="paint8_linear" x1="3188.48" y1="3079.28" x2="3764.41" y2="2922.15" gradientUnits="userSpaceOnUse">
<stop stop-opacity="0.09"/>
<stop offset="0.55" stop-opacity="0.07"/>
<stop offset="1" stop-opacity="0.02"/>
</linearGradient>
<linearGradient id="paint9_linear" x1="-2387.2" y1="7699.58" x2="-1811.26" y2="7542.45" gradientUnits="userSpaceOnUse">
<stop stop-opacity="0.09"/>
<stop offset="0.55" stop-opacity="0.07"/>
<stop offset="1" stop-opacity="0.02"/>
</linearGradient>
<linearGradient id="paint10_linear" x1="749.557" y1="6815.77" x2="1325.5" y2="6658.64" gradientUnits="userSpaceOnUse">
<stop stop-opacity="0.09"/>
<stop offset="0.55" stop-opacity="0.07"/>
<stop offset="1" stop-opacity="0.02"/>
</linearGradient>
<linearGradient id="paint11_linear" x1="3985.03" y1="5904.13" x2="4560.97" y2="5747" gradientUnits="userSpaceOnUse">
<stop stop-opacity="0.09"/>
<stop offset="0.55" stop-opacity="0.07"/>
<stop offset="1" stop-opacity="0.02"/>
</linearGradient>
<linearGradient id="paint12_linear" x1="221732" y1="153705" x2="221732" y2="67216.5" gradientUnits="userSpaceOnUse">
<stop stop-color="#808080" stop-opacity="0.25"/>
<stop offset="0.54" stop-color="#808080" stop-opacity="0.12"/>
<stop offset="1" stop-color="#808080" stop-opacity="0.1"/>
</linearGradient>
<linearGradient id="paint13_linear" x1="2286" y1="2261.84" x2="2286" y2="2087.84" gradientUnits="userSpaceOnUse">
<stop stop-color="#808080" stop-opacity="0.25"/>
<stop offset="0.54" stop-color="#808080" stop-opacity="0.12"/>
<stop offset="1" stop-color="#808080" stop-opacity="0.1"/>
</linearGradient>
<linearGradient id="paint14_linear" x1="918.335" y1="6192.44" x2="918.335" y2="5923.26" gradientUnits="userSpaceOnUse">
<stop stop-opacity="0.12"/>
<stop offset="0.55" stop-opacity="0.09"/>
<stop offset="1" stop-opacity="0.02"/>
</linearGradient>
<clipPath id="clip0">
<rect width="510" height="397" fill="white"/>
</clipPath>
</defs>
</svg>
