<svg width="546" height="350" viewBox="0 0 546 350" fill="none" xmlns="http://www.w3.org/2000/svg">
<path d="M545.421 0.30835H0.232422V349.304H545.421V0.30835Z" fill="#E6E6E6"/>
<path d="M529.832 44.0817H15.8224V177.122H529.832V44.0817Z" fill="white"/>
<path d="M252.379 63.2986H143.677V69.5355H252.379V63.2986Z" fill="#E6E6E6"/>
<path d="M311.536 86.0491H143.677V92.2859H311.536V86.0491Z" fill="#CF5C34"/>
<path d="M280.479 107.483H143.677V113.72H280.479V107.483Z" fill="#E6E6E6"/>
<path d="M223.54 128.837H143.677V135.073H223.54V128.837Z" fill="#E6E6E6"/>
<path d="M264.21 150.19H143.677V156.427H264.21V150.19Z" fill="#E6E6E6"/>
<path d="M107.444 61.0812H94.1332V74.3852H107.444V61.0812Z" fill="#E6E6E6"/>
<path d="M107.444 82.5155H94.1332V95.8195H107.444V82.5155Z" fill="#CF5C34"/>
<path d="M107.444 103.95H94.1332V117.254H107.444V103.95Z" fill="#E6E6E6"/>
<path d="M107.444 125.384H94.1332V138.688H107.444V125.384Z" fill="#E6E6E6"/>
<path d="M107.444 146.818H94.1332V160.122H107.444V146.818Z" fill="#E6E6E6"/>
<path d="M457.95 91.3848H413.583V135.731H457.95V91.3848Z" fill="#E6E6E6"/>
<path d="M529.832 195.6H15.8224V328.64H529.832V195.6Z" fill="white"/>
<path d="M130.367 207.423H117.057V220.727H130.367V207.423Z" fill="#E6E6E6"/>
<path d="M107.444 207H94.1332V220.304H107.444V207Z" fill="#EFC78A"/>
<path d="M319.813 236.517C315.756 229.652 310.127 223.847 303.388 219.58C296.65 215.314 288.994 212.706 281.051 211.973C273.108 211.239 265.105 212.401 257.698 215.362C250.292 218.322 243.694 222.998 238.448 229.004L235.204 226.171C240.898 219.65 248.058 214.574 256.098 211.359C264.137 208.145 272.825 206.884 281.447 207.679C290.069 208.475 298.379 211.306 305.693 215.938C313.007 220.57 319.117 226.871 323.52 234.323L319.813 236.517Z" fill="#E6E6E6"/>
<path d="M321.843 292.606L318.268 290.203C323.563 282.31 326.517 273.082 326.79 263.583C327.064 254.084 324.645 244.701 319.813 236.517L323.52 234.324C328.766 243.208 331.393 253.394 331.096 263.707C330.799 274.019 327.592 284.037 321.843 292.606V292.606Z" fill="#EFC78A"/>
<path d="M235.653 298.181C226.749 288.241 221.788 275.39 221.705 262.049C221.623 248.708 226.424 235.796 235.204 225.747L238.448 228.581C230.359 237.838 225.937 249.732 226.013 262.022C226.089 274.313 230.659 286.151 238.861 295.308L235.653 298.181Z" fill="#EFC78A"/>
<path d="M276.412 316.816C268.719 316.81 261.115 315.185 254.092 312.048C247.07 308.91 240.787 304.329 235.653 298.604L238.861 295.731C243.983 301.451 250.344 305.925 257.46 308.811C264.575 311.698 272.257 312.922 279.918 312.388C287.579 311.855 295.016 309.579 301.663 305.734C308.309 301.889 313.989 296.577 318.268 290.203L321.843 292.606C316.841 300.06 310.08 306.168 302.157 310.391C294.233 314.613 285.391 316.82 276.412 316.816V316.816Z" fill="#EFC78A"/>
<path d="M457.95 236.251H413.583V280.597H457.95V236.251Z" fill="#E6E6E6"/>
<path d="M136.653 265.076H92.2845V309.423H136.653V265.076Z" fill="#E6E6E6"/>
<path d="M545.189 0H0V23.1505H545.189V0Z" fill="#7C7C7C"/>
<path d="M17.2119 16.1266C19.5828 16.1266 21.5047 14.2055 21.5047 11.8358C21.5047 9.46609 19.5828 7.54504 17.2119 7.54504C14.841 7.54504 12.9191 9.46609 12.9191 11.8358C12.9191 14.2055 14.841 16.1266 17.2119 16.1266Z" fill="white"/>
<path d="M33.5063 16.1266C35.8772 16.1266 37.7992 14.2055 37.7992 11.8358C37.7992 9.46609 35.8772 7.54504 33.5063 7.54504C31.1355 7.54504 29.2135 9.46609 29.2135 11.8358C29.2135 14.2055 31.1355 16.1266 33.5063 16.1266Z" fill="white"/>
<path d="M49.8008 16.1266C52.1716 16.1266 54.0936 14.2055 54.0936 11.8358C54.0936 9.46609 52.1716 7.54504 49.8008 7.54504C47.4299 7.54504 45.5079 9.46609 45.5079 11.8358C45.5079 14.2055 47.4299 16.1266 49.8008 16.1266Z" fill="white"/>
</svg>
