<svg width="258" height="259" viewBox="0 0 258 259" fill="none" xmlns="http://www.w3.org/2000/svg">
<g clip-path="url(#clip0)">
<path d="M0 258.131H248.25V9.88101H0V258.131ZM31.031 40.912H72.406L31.031 82.287V40.912ZM31.031 102.975L93.093 40.913H113.781L31.031 123.663V102.975ZM31.031 144.35L134.883 40.912H217.219V227.1H31.031V144.35Z" fill="#EFC88B"/>
<path d="M9.10498 248.25H257.355V0H9.10498V248.25ZM40.137 31.031H81.512L40.137 72.406V31.031ZM40.137 93.094L102.199 31.032H122.887L40.137 113.782V93.094ZM40.137 134.469L143.989 31.031H226.325V217.219H40.137V134.469Z" fill="#7D7D7D"/>
</g>
<defs>
<clipPath id="clip0">
<rect width="257.356" height="258.131" fill="white"/>
</clipPath>
</defs>
</svg>
