<svg width="349" height="308" viewBox="0 0 349 308" fill="none" xmlns="http://www.w3.org/2000/svg">
<path d="M21.866 286.38L70.17 251.756C95.932 280.789 133.401 299.161 175.241 299.161C216.955 299.161 254.301 280.888 280.051 252.057L328.617 286.38L341.396 259.744L297.312 228.14C309.033 207.619 315.835 183.904 315.835 158.568C315.835 133.229 309.032 109.513 297.312 88.982L341.396 57.39L328.617 30.753L280.051 65.079C254.301 36.233 216.955 17.973 175.241 17.973C133.401 17.973 95.931 36.345 70.17 65.377L21.866 30.754L9.08398 60.562L51.995 90.892C40.963 110.961 34.645 134.028 34.645 158.569C34.645 183.107 40.962 206.173 51.995 226.218L9.08398 256.575L21.866 286.38ZM175.241 273.6C141.966 273.6 112.084 259.395 91.063 236.779L174.168 177.216L259.043 237.203C238.049 259.545 208.318 273.6 175.241 273.6ZM290.271 158.569C290.271 178.339 285.255 196.963 276.48 213.213L200.216 158.569L276.48 103.923C285.256 120.174 290.271 138.772 290.271 158.569ZM175.241 43.536C208.319 43.536 238.049 57.579 259.043 79.932L174.168 139.895L91.063 80.332C112.083 57.741 141.965 43.536 175.241 43.536ZM60.209 158.569C60.209 139.52 64.914 121.609 73.102 105.796L147.756 158.569L73.102 211.341C64.915 195.514 60.209 177.59 60.209 158.569Z" fill="#EFC88B"/>
<path d="M23.1421 275.854L71.4461 241.23C97.2081 270.262 134.678 288.635 176.518 288.635C218.233 288.635 255.579 270.362 281.329 241.53L329.893 275.854L342.674 249.217L298.59 217.613C310.311 197.093 317.113 173.378 317.113 148.041C317.113 122.703 310.31 98.987 298.59 78.455L342.674 46.863L329.893 20.227L281.329 54.552C255.579 25.706 218.233 7.44604 176.518 7.44604C134.679 7.44604 97.2081 25.818 71.4461 54.851L23.1421 20.228L10.3621 50.035L53.2721 80.366C42.2401 100.435 35.9231 123.502 35.9231 148.042C35.9231 172.581 42.2391 195.647 53.2721 215.692L10.3621 246.048L23.1421 275.854ZM176.518 263.073C143.242 263.073 113.36 248.868 92.3411 226.253L175.445 166.69L260.32 226.677C239.326 249.019 209.596 263.073 176.518 263.073ZM291.549 148.042C291.549 167.812 286.531 186.437 277.758 202.686L201.494 148.042L277.758 93.396C286.531 109.647 291.549 128.245 291.549 148.042ZM176.518 33.008C209.596 33.008 239.327 47.052 260.321 69.405L175.446 129.367L92.3401 69.805C113.36 47.213 143.242 33.008 176.518 33.008ZM61.4871 148.042C61.4871 128.994 66.1911 111.083 74.3801 95.27L149.034 148.042L74.3801 200.815C66.1911 184.987 61.4871 167.063 61.4871 148.042Z" fill="#7D7D7D"/>
</svg>
