<svg width="216" height="243" viewBox="0 0 216 243" fill="none" xmlns="http://www.w3.org/2000/svg">
<path d="M154.006 220.555H60.5609V239.223H154.006V220.555Z" fill="#EFC88B"/>
<path d="M107.283 5.86078C50.5039 5.86078 4.49536 51.8311 4.49536 108.539C4.49536 165.249 50.5039 211.219 107.283 211.219C164.042 211.219 210.071 165.249 210.071 108.539C210.071 51.8311 164.042 5.86078 107.283 5.86078ZM107.283 192.55C60.8253 192.55 23.1836 154.939 23.1836 108.539C23.1836 62.1311 60.8253 24.5292 107.283 24.5292C153.732 24.5292 191.383 62.1311 191.383 108.539C191.383 154.939 153.732 192.55 107.283 192.55Z" fill="#EFC88B"/>
<path fill-rule="evenodd" clip-rule="evenodd" d="M80.8564 62.7883C98.0656 62.7883 115.149 62.7883 132.432 62.7883C132.432 66.7995 132.432 70.6826 132.432 74.8759C120.241 74.8759 108.086 74.8759 95.6574 74.8759C95.6574 83.6523 95.6574 92.1315 95.6574 100.91C106.845 100.91 117.961 100.91 129.312 100.91C129.312 105.067 129.312 108.949 129.312 113.234C118.179 113.234 107.009 113.234 95.6033 113.234C95.6033 122.989 95.6033 132.323 95.6033 142.041C108.269 142.041 120.899 142.041 133.692 142.041C133.692 146.288 133.692 150.171 133.692 154.291C116.153 154.291 98.6328 154.291 80.8564 154.291C80.8564 123.9 80.8564 93.4346 80.8564 62.7883Z" fill="#EFC88B"/>
<path d="M156.678 218.812H63.2335V237.48H156.678V218.812Z" fill="#7D7D7D"/>
<path d="M109.956 4.11755C53.1765 4.11755 7.16711 50.0879 7.16711 106.796C7.16711 163.505 53.1757 209.476 109.955 209.476C166.714 209.476 212.743 163.505 212.743 106.796C212.743 50.0879 166.714 4.11755 109.956 4.11755ZM109.956 190.807C63.4979 190.807 25.8562 153.196 25.8562 106.796C25.8562 60.3878 63.4979 22.786 109.956 22.786C156.404 22.786 194.055 60.3878 194.055 106.796C194.055 153.196 156.404 190.807 109.956 190.807Z" fill="#7D7D7D"/>
<path fill-rule="evenodd" clip-rule="evenodd" d="M83.5281 61.045C100.737 61.045 117.821 61.045 135.104 61.045C135.104 65.0563 135.104 68.9393 135.104 73.1327C122.913 73.1327 110.758 73.1327 98.3291 73.1327C98.3291 81.9091 98.3291 90.3883 98.3291 99.1664C109.517 99.1664 120.633 99.1664 131.984 99.1664C131.984 103.324 131.984 107.206 131.984 111.491C120.85 111.491 109.681 111.491 98.275 111.491C98.275 121.245 98.275 130.58 98.275 140.297C110.941 140.297 123.571 140.297 136.363 140.297C136.363 144.545 136.363 148.428 136.363 152.548C118.824 152.548 101.305 152.548 83.5281 152.548C83.5281 122.156 83.5281 91.6913 83.5281 61.045Z" fill="#7D7D7D"/>
</svg>
