<svg width="28" height="30" viewBox="0 0 28 30" fill="none" xmlns="http://www.w3.org/2000/svg">
<path fill-rule="evenodd" clip-rule="evenodd" d="M0.723671 23.8877C-0.241224 24.8556 -0.241224 26.4312 0.723671 27.3998C1.68788 28.3688 3.25616 28.3688 4.2138 27.3998L4.91073 26.7064L7.81692 29.625C8.31388 30.125 9.11038 30.125 9.60803 29.625L13.939 25.2744C14.4368 24.7754 14.4368 23.975 13.939 23.4751L11.0335 20.5565L16.2097 15.3503C17.3173 15.9252 18.5798 16.2497 19.9117 16.2497C24.3789 16.2497 28 12.6128 28 8.12493C28 3.63758 24.3789 0 19.9117 0C15.4441 0 11.8234 3.63758 11.8234 8.12493C11.8234 9.46284 12.1467 10.7311 12.7189 11.8437L0.723671 23.8877ZM16.8007 8.12493C16.8007 6.4 18.1946 4.99984 19.9116 4.99984C21.6288 4.99984 23.0224 6.4 23.0224 8.12493C23.0224 9.84985 21.6288 11.2498 19.9116 11.2498C18.1946 11.2498 16.8007 9.84978 16.8007 8.12493Z" fill="#CF5C34"/>
</svg>
