<svg width="287" height="70" viewBox="0 0 287 70" fill="none" xmlns="http://www.w3.org/2000/svg">
<path d="M77.0131 52.442C77.2641 52.442 77.4821 52.534 77.6651 52.717C77.8481 52.9 77.9391 53.117 77.9391 53.369V55.807C77.9391 56.059 77.8481 56.276 77.6651 56.459C77.4811 56.642 77.2641 56.732 77.0131 56.732H61.9431C61.6911 56.732 61.4741 56.641 61.2911 56.459C61.1081 56.275 61.0171 56.059 61.0171 55.807V33.631C61.0171 33.38 61.1081 33.162 61.2911 32.979C61.4741 32.796 61.6911 32.705 61.9431 32.705H76.7381C76.9901 32.705 77.2071 32.797 77.3901 32.979C77.5731 33.163 77.6651 33.38 77.6651 33.631V36.069C77.6651 36.321 77.5731 36.538 77.3901 36.721C77.2061 36.905 76.9901 36.994 76.7381 36.994H65.6511V42.453H75.9841C76.2351 42.453 76.4521 42.545 76.6351 42.727C76.8181 42.909 76.9101 43.127 76.9101 43.378V45.816C76.9101 46.068 76.8181 46.286 76.6351 46.468C76.4521 46.652 76.2351 46.743 75.9841 46.743H65.6511V52.44H77.0131V52.442Z" fill="#CF5C34"/>
<path d="M86.3502 55.807C86.3502 56.059 86.2592 56.276 86.0762 56.459C85.8932 56.642 85.6762 56.732 85.4242 56.732H82.8152C82.5642 56.732 82.3462 56.641 82.1632 56.459C81.9792 56.275 81.8892 56.059 81.8892 55.807V33.288C81.8892 33.036 81.9802 32.819 82.1632 32.636C82.3462 32.453 82.5632 32.361 82.8152 32.361H85.4242C85.6752 32.361 85.8932 32.453 86.0762 32.636C86.2592 32.82 86.3502 33.036 86.3502 33.288V55.807Z" fill="#CF5C34"/>
<path d="M90.1941 47.808C90.1941 46.527 90.3881 45.319 90.7781 44.186C91.1671 43.054 91.7271 42.07 92.4601 41.235C93.1921 40.399 94.0791 39.741 95.1201 39.26C96.1611 38.779 97.3231 38.539 98.6041 38.539C99.8851 38.539 101.046 38.773 102.088 39.243C103.129 39.713 104.016 40.342 104.749 41.131C105.48 41.92 106.047 42.848 106.448 43.912C106.848 44.976 107.048 46.092 107.048 47.258V48.803C107.048 49.055 106.957 49.273 106.774 49.455C106.59 49.639 106.373 49.73 106.122 49.73H94.6571C94.6571 50.255 94.7651 50.72 94.9831 51.12C95.2001 51.521 95.4911 51.857 95.8581 52.133C96.2241 52.407 96.6481 52.613 97.1291 52.75C97.6091 52.889 98.1011 52.957 98.6051 52.957C99.3371 52.957 99.9321 52.883 100.39 52.733C100.848 52.585 101.225 52.396 101.523 52.168C101.774 51.984 101.981 51.857 102.141 51.789C102.301 51.721 102.518 51.686 102.793 51.686H105.539C105.79 51.686 106.014 51.778 106.208 51.96C106.402 52.144 106.488 52.36 106.466 52.612C106.443 52.932 106.265 53.344 105.934 53.848C105.602 54.352 105.104 54.843 104.44 55.324C103.776 55.805 102.959 56.217 101.986 56.559C101.013 56.903 99.8861 57.075 98.6051 57.075C97.3241 57.075 96.1621 56.852 95.1211 56.405C94.0791 55.96 93.1931 55.324 92.4611 54.501C91.7291 53.677 91.1681 52.698 90.7791 51.565C90.3891 50.434 90.1941 49.181 90.1941 47.808ZM98.6041 42.659C97.9401 42.659 97.3741 42.757 96.9051 42.951C96.4361 43.145 96.0401 43.397 95.7201 43.706C95.3991 44.016 95.1541 44.358 94.9821 44.736C94.8101 45.114 94.7011 45.473 94.6561 45.817H102.414C102.368 45.473 102.282 45.114 102.157 44.736C102.031 44.358 101.824 44.015 101.539 43.706C101.252 43.397 100.875 43.145 100.406 42.951C99.9381 42.756 99.3371 42.659 98.6041 42.659Z" fill="#CF5C34"/>
<path d="M115.94 56.459C115.779 56.275 115.653 56.08 115.562 55.875L108.662 40.05C108.639 39.981 108.628 39.901 108.628 39.81C108.628 39.558 108.719 39.341 108.902 39.158C109.085 38.975 109.302 38.884 109.554 38.884H112.129C112.472 38.884 112.724 38.976 112.884 39.158C113.044 39.342 113.17 39.524 113.261 39.708L117.827 50.349L122.392 39.708C122.483 39.524 122.609 39.342 122.769 39.158C122.929 38.975 123.181 38.884 123.524 38.884H126.099C126.35 38.884 126.568 38.976 126.751 39.158C126.934 39.342 127.025 39.558 127.025 39.81C127.025 39.901 127.013 39.981 126.99 40.05L120.091 55.875C119.999 56.08 119.873 56.275 119.713 56.459C119.553 56.642 119.301 56.732 118.958 56.732H116.692C116.352 56.733 116.1 56.642 115.94 56.459Z" fill="#CF5C34"/>
<path d="M128.675 47.808C128.675 46.527 128.87 45.319 129.259 44.186C129.648 43.054 130.208 42.07 130.941 41.235C131.673 40.399 132.56 39.741 133.602 39.26C134.643 38.78 135.804 38.539 137.086 38.539C138.367 38.539 139.528 38.773 140.57 39.243C141.612 39.713 142.498 40.342 143.231 41.131C143.962 41.92 144.529 42.848 144.93 43.912C145.329 44.976 145.531 46.092 145.531 47.258V48.803C145.531 49.055 145.439 49.273 145.257 49.455C145.073 49.639 144.856 49.73 144.605 49.73H133.14C133.14 50.255 133.248 50.72 133.466 51.12C133.683 51.521 133.975 51.857 134.341 52.133C134.707 52.407 135.131 52.613 135.612 52.75C136.092 52.889 136.584 52.957 137.088 52.957C137.82 52.957 138.415 52.883 138.873 52.733C139.331 52.585 139.708 52.396 140.006 52.168C140.257 51.984 140.463 51.857 140.624 51.789C140.784 51.721 141.001 51.686 141.276 51.686H144.022C144.274 51.686 144.497 51.778 144.692 51.96C144.885 52.144 144.972 52.36 144.95 52.612C144.927 52.932 144.749 53.344 144.418 53.848C144.085 54.352 143.588 54.843 142.924 55.324C142.261 55.805 141.443 56.217 140.47 56.559C139.497 56.903 138.37 57.075 137.089 57.075C135.807 57.075 134.646 56.852 133.605 56.405C132.563 55.96 131.677 55.324 130.944 54.501C130.212 53.677 129.651 52.698 129.262 51.565C128.87 50.434 128.675 49.181 128.675 47.808ZM137.086 42.659C136.421 42.659 135.856 42.757 135.387 42.951C134.918 43.145 134.523 43.397 134.202 43.706C133.881 44.016 133.636 44.358 133.464 44.736C133.292 45.114 133.183 45.473 133.138 45.817H140.895C140.849 45.473 140.764 45.114 140.638 44.736C140.512 44.358 140.306 44.015 140.02 43.706C139.733 43.397 139.356 43.145 138.887 42.951C138.418 42.757 137.818 42.659 137.086 42.659Z" fill="#CF5C34"/>
<path d="M166.023 55.807C166.023 56.059 165.931 56.276 165.749 56.459C165.565 56.642 165.349 56.732 165.097 56.732H162.489C162.236 56.732 162.019 56.641 161.837 56.459C161.653 56.275 161.562 56.059 161.562 55.807V47.087C161.562 45.714 161.242 44.615 160.601 43.791C159.96 42.967 158.976 42.556 157.649 42.556C156.436 42.556 155.481 42.967 154.783 43.791C154.085 44.615 153.736 45.714 153.736 47.087V55.807C153.736 56.059 153.644 56.276 153.462 56.459C153.278 56.642 153.061 56.732 152.81 56.732H150.201C149.949 56.732 149.732 56.641 149.549 56.459C149.365 56.275 149.275 56.059 149.275 55.807V39.81C149.275 39.558 149.366 39.341 149.549 39.158C149.733 38.975 149.949 38.884 150.201 38.884H152.81C153.061 38.884 153.279 38.976 153.462 39.158C153.645 39.342 153.736 39.558 153.736 39.81V40.599C154.331 40.004 155.029 39.512 155.83 39.123C156.631 38.734 157.581 38.539 158.68 38.539C160.076 38.539 161.242 38.757 162.181 39.191C163.119 39.627 163.874 40.21 164.447 40.941C165.018 41.674 165.426 42.527 165.666 43.5C165.906 44.473 166.026 45.496 166.026 46.572V55.807H166.023Z" fill="#CF5C34"/>
<path d="M181.058 39.055C179.365 39.055 178.484 39.912 178.415 41.629C178.347 43.529 178.347 45.473 178.415 47.465C178.46 48.494 178.724 49.238 179.204 49.695C179.684 50.154 180.349 50.383 181.195 50.383C182.065 50.383 182.768 50.194 183.306 49.816C183.843 49.438 184.113 48.803 184.113 47.911H182.5C182.247 47.911 182.03 47.82 181.848 47.638C181.664 47.454 181.574 47.238 181.574 46.986V43.175C181.574 42.923 181.665 42.706 181.848 42.523C182.031 42.339 182.247 42.248 182.5 42.248H191.939C192.191 42.248 192.409 42.34 192.591 42.523C192.775 42.707 192.865 42.923 192.865 43.175V47.638C192.865 49.194 192.574 50.556 191.99 51.722C191.407 52.89 190.594 53.873 189.552 54.674C188.511 55.476 187.27 56.076 185.828 56.476C184.386 56.876 182.795 57.078 181.056 57.078C179.317 57.078 177.749 56.883 176.354 56.494C174.958 56.105 173.762 55.521 172.767 54.744C171.771 53.967 170.993 52.988 170.432 51.808C169.871 50.63 169.557 49.24 169.488 47.638C169.442 46.699 169.42 45.681 169.42 44.581C169.42 43.483 169.442 42.442 169.488 41.458C169.557 39.947 169.878 38.621 170.45 37.477C171.021 36.333 171.811 35.382 172.818 34.627C173.825 33.872 175.026 33.305 176.422 32.928C177.818 32.55 179.362 32.362 181.056 32.362C182.865 32.362 184.494 32.568 185.949 32.98C187.401 33.393 188.632 33.947 189.638 34.645C190.645 35.344 191.429 36.156 191.99 37.082C192.551 38.01 192.843 38.987 192.865 40.018C192.865 40.223 192.791 40.401 192.642 40.549C192.493 40.698 192.316 40.773 192.11 40.773H184.524C184.066 40.773 183.734 40.647 183.528 40.395C183.46 40.304 183.374 40.184 183.271 40.036C183.167 39.887 183.018 39.738 182.825 39.589C182.63 39.441 182.39 39.315 182.104 39.212C181.818 39.106 181.47 39.055 181.058 39.055Z" fill="#CF5C34"/>
<path d="M195.44 39.81C195.44 39.558 195.532 39.341 195.715 39.158C195.898 38.975 196.114 38.884 196.367 38.884H202.923C203.175 38.884 203.392 38.976 203.575 39.158C203.758 39.342 203.849 39.558 203.849 39.81V49.043C203.849 50.303 204.421 50.932 205.566 50.932C206.71 50.932 207.282 50.303 207.282 49.043V39.81C207.282 39.558 207.374 39.341 207.556 39.158C207.74 38.975 207.956 38.884 208.208 38.884H214.73C214.982 38.884 215.199 38.976 215.382 39.158C215.565 39.342 215.656 39.558 215.656 39.81V55.807C215.656 56.059 215.564 56.276 215.382 56.459C215.198 56.642 214.982 56.732 214.73 56.732H208.723C208.471 56.732 208.253 56.641 208.071 56.459C207.887 56.275 207.797 56.059 207.797 55.807V54.673C207.225 55.52 206.441 56.133 205.445 56.51C204.449 56.887 203.334 57.076 202.098 57.076C201.227 57.076 200.393 56.927 199.591 56.63C198.79 56.332 198.081 55.863 197.463 55.223C196.845 54.583 196.353 53.77 195.987 52.785C195.62 51.801 195.437 50.635 195.437 49.283V39.81H195.44Z" fill="#CF5C34"/>
<path d="M217.788 51.619C217.788 50.795 217.965 50.057 218.319 49.405C218.673 48.753 219.177 48.186 219.83 47.706C220.483 47.226 221.271 46.819 222.198 46.487C223.125 46.155 224.16 45.885 225.304 45.68L228.944 45.096C228.944 44.479 228.892 44.032 228.789 43.757C228.686 43.483 228.394 43.346 227.914 43.346C227.616 43.346 227.376 43.403 227.193 43.517C227.009 43.631 226.843 43.757 226.695 43.895C226.546 44.032 226.386 44.159 226.215 44.272C226.043 44.387 225.82 44.444 225.545 44.444H219.71C219.481 44.444 219.292 44.376 219.144 44.238C218.995 44.101 218.932 43.919 218.956 43.689C218.978 43.254 219.162 42.739 219.505 42.144C219.848 41.549 220.38 40.989 221.102 40.462C221.823 39.936 222.749 39.483 223.882 39.106C225.015 38.729 226.382 38.54 227.985 38.54C231.12 38.54 233.436 39.186 234.935 40.479C236.434 41.772 237.184 43.598 237.184 45.954V55.808C237.184 56.06 237.092 56.277 236.909 56.46C236.726 56.643 236.509 56.733 236.257 56.733H230.25C229.998 56.733 229.78 56.642 229.598 56.46C229.414 56.276 229.324 56.06 229.324 55.808V54.846C228.82 55.533 228.151 56.076 227.316 56.476C226.48 56.876 225.525 57.078 224.449 57.078C223.466 57.078 222.561 56.94 221.738 56.666C220.914 56.391 220.211 56.009 219.627 55.516C219.043 55.024 218.592 54.447 218.271 53.784C217.947 53.118 217.788 52.397 217.788 51.619ZM226.815 51.997C227.479 51.997 228.016 51.785 228.428 51.361C228.84 50.938 229.046 50.257 229.046 49.319L227.021 49.764C226.425 49.903 226.026 50.085 225.82 50.314C225.614 50.543 225.511 50.784 225.511 51.035C225.511 51.288 225.618 51.511 225.837 51.704C226.055 51.899 226.381 51.997 226.815 51.997Z" fill="#CF5C34"/>
<path d="M247.961 41.012C248.693 40.37 249.511 39.856 250.415 39.467C251.319 39.077 252.286 38.883 253.316 38.883H254.963C255.214 38.883 255.432 38.975 255.615 39.157C255.798 39.341 255.889 39.557 255.889 39.809V45.163C255.889 45.415 255.797 45.633 255.615 45.815C255.431 45.999 255.214 46.09 254.963 46.09H250.534C249.161 46.09 248.475 46.776 248.475 48.149V55.805C248.475 56.057 248.382 56.274 248.2 56.457C248.016 56.64 247.8 56.73 247.548 56.73H241.027C240.775 56.73 240.557 56.639 240.375 56.457C240.191 56.273 240.101 56.057 240.101 55.805V39.81C240.101 39.558 240.192 39.341 240.375 39.158C240.558 38.975 240.775 38.884 241.027 38.884H247.034C247.286 38.884 247.503 38.976 247.686 39.158C247.869 39.342 247.96 39.558 247.96 39.81V41.012H247.961Z" fill="#CF5C34"/>
<path d="M264.713 38.54C265.674 38.54 266.537 38.684 267.305 38.97C268.071 39.256 268.729 39.651 269.279 40.154V33.289C269.279 33.037 269.37 32.82 269.553 32.637C269.736 32.454 269.953 32.362 270.205 32.362H276.556C276.808 32.362 277.025 32.454 277.208 32.637C277.391 32.821 277.482 33.037 277.482 33.289V55.808C277.482 56.06 277.39 56.277 277.208 56.46C277.024 56.643 276.808 56.733 276.556 56.733H270.72C270.468 56.733 270.251 56.642 270.068 56.46C269.884 56.276 269.794 56.06 269.794 55.808V55.017C269.245 55.636 268.559 56.134 267.734 56.511C266.909 56.888 265.903 57.077 264.713 57.077C263.706 57.077 262.774 56.934 261.915 56.647C261.057 56.362 260.307 55.898 259.667 55.257C259.025 54.615 258.511 53.797 258.122 52.803C257.732 51.807 257.504 50.588 257.435 49.147C257.412 48.621 257.401 48.168 257.401 47.792C257.401 47.414 257.412 46.962 257.435 46.436C257.48 45.085 257.698 43.919 258.087 42.935C258.476 41.951 258.996 41.132 259.649 40.48C260.302 39.828 261.056 39.342 261.915 39.021C262.773 38.7 263.706 38.54 264.713 38.54ZM265.846 46.675C265.799 47.018 265.777 47.396 265.777 47.808C265.777 48.219 265.799 48.598 265.846 48.941C265.914 49.559 266.057 50.045 266.275 50.4C266.493 50.755 266.921 50.932 267.562 50.932C268.203 50.932 268.638 50.754 268.867 50.4C269.096 50.046 269.233 49.559 269.279 48.941C269.325 48.415 269.347 47.991 269.347 47.67C269.347 47.349 269.325 46.927 269.279 46.4C269.233 45.85 269.085 45.427 268.833 45.129C268.581 44.832 268.157 44.683 267.562 44.683C266.921 44.683 266.493 44.861 266.275 45.215C266.057 45.572 265.914 46.057 265.846 46.675Z" fill="#CF5C34"/>
<path d="M47.6041 29.745H44.1481L44.1681 22.3V21.727C44.1681 13.503 37.5011 6.83698 29.2781 6.83698C21.0531 6.83698 14.3881 13.504 14.3881 21.727V29.745H10.9521C8.42012 29.745 6.37012 31.795 6.37012 34.327V57.236C6.37012 59.767 8.42012 61.817 10.9521 61.817H47.6041C50.1361 61.817 52.1871 59.767 52.1871 57.236V34.326C52.1871 31.795 50.1361 29.745 47.6041 29.745ZM20.1151 21.727C20.1151 16.665 24.2161 12.563 29.2781 12.563C34.3411 12.563 38.4411 16.664 38.4411 21.727V22.3V29.745H20.1151V21.727ZM32.7151 51.754C32.7151 52.705 31.9471 53.471 30.9971 53.471H27.5601C26.6101 53.471 25.8421 52.705 25.8421 51.754L26.7931 45.866C25.5331 45.054 24.6971 43.633 24.6971 42.017C24.6971 39.486 26.7471 37.436 29.2791 37.436C31.8111 37.436 33.8611 39.486 33.8611 42.017C33.8611 43.632 33.0251 45.053 31.7651 45.866C31.7651 45.867 32.2121 48.571 32.7151 51.754Z" fill="#CF5C34"/>
</svg>
