<svg width="28" height="21" viewBox="0 0 28 21" fill="none" xmlns="http://www.w3.org/2000/svg">
<path fill-rule="evenodd" clip-rule="evenodd" d="M0 18.6001C0 19.9261 1.04424 21 2.33322 21H25.6668C26.9559 21 28 19.9261 28 18.6001V2.39989C28 1.07387 26.9559 0 25.6668 0H2.33329C1.04424 0 6.42925e-05 1.07387 6.42925e-05 2.39989V18.6001H0ZM8.5865 10.5182L3.24879 4.99208C2.80609 4.53601 2.80609 3.79788 3.24879 3.34208C3.69258 2.88594 4.41026 2.88594 4.85289 3.34208L13.37 12.1136C13.714 12.4616 14.2802 12.4616 14.6187 12.1136L23.1465 3.34208C23.5895 2.88594 24.3074 2.88594 24.7507 3.34208C25.194 3.79788 25.194 4.53601 24.7507 4.99208L19.4073 10.5182L24.7507 16.0079C25.194 16.4635 25.194 17.2019 24.7507 17.6578C24.3074 18.1135 23.5895 18.1135 23.1465 17.6578L17.8088 12.1739C17.8088 12.1739 16.1408 13.92 15.8377 14.232C15.365 14.7058 14.7114 15 14 15C13.2765 15 12.6231 14.7 12.1509 14.2137C11.8414 13.9019 10.185 12.1739 10.185 12.1739L4.85289 17.6578C4.4102 18.1135 3.69258 18.1135 3.24879 17.6578C2.80609 17.2019 2.80609 16.4635 3.24879 16.0079L8.5865 10.5182Z" fill="#EDE4E8"/>
</svg>
