<svg width="22" height="25" viewBox="0 0 22 25" fill="none" xmlns="http://www.w3.org/2000/svg">
<path fill-rule="evenodd" clip-rule="evenodd" d="M20.6903 5.2082H17.2855V2.08323C17.2855 0.932296 16.348 0 15.1904 0H6.80948C5.65192 0 4.71424 0.932353 4.71424 2.08323V5.20825H1.30948C0.586737 5.20825 0 5.79166 0 6.51042C0 7.22906 0.586737 7.81247 1.30948 7.81247H2.09523V22.9168C2.09523 24.0678 3.03279 25 4.19041 25H17.8095C18.967 25 19.9047 24.0678 19.9047 22.9168V7.81247H20.6904C21.4131 7.81247 22 7.22906 22 6.51042C21.9999 5.79161 21.413 5.2082 20.6903 5.2082ZM14.6666 5.2082H7.3332V3.75011C7.3332 3.11476 7.84683 2.6041 8.48574 2.6041H13.514C14.1531 2.6041 14.6665 3.11482 14.6665 3.75011V5.2082H14.6666ZM7.3332 8.85408V21.3541C7.3332 21.9269 6.86154 22.3958 6.28564 22.3958C5.70974 22.3958 5.23808 21.9269 5.23808 21.3541V8.85408C5.23808 8.28145 5.70968 7.81247 6.28564 7.81247C6.8616 7.81247 7.3332 8.28145 7.3332 8.85408ZM12.0476 8.85408V21.3541C12.0476 21.9269 11.576 22.3958 10.9999 22.3958C10.424 22.3958 9.95238 21.9269 9.95238 21.3541V8.85408C9.95238 8.28145 10.424 7.81247 10.9999 7.81247C11.576 7.81247 12.0476 8.28145 12.0476 8.85408ZM16.7617 8.85408V21.3541C16.7617 21.9269 16.29 22.3958 15.7142 22.3958C15.1382 22.3958 14.6665 21.9269 14.6665 21.3541V8.85408C14.6665 8.28145 15.1382 7.81247 15.7142 7.81247C16.2901 7.81247 16.7617 8.28145 16.7617 8.85408Z" fill="#7C7C7C"/>
</svg>
